<?xml version="1.0" standalone="no"?>
<!DOCTYPE svg PUBLIC "-//W3C//DTD SVG 20010904//EN"
 "http://www.w3.org/TR/2001/REC-SVG-20010904/DTD/svg10.dtd">
<svg version="1.0" xmlns="http://www.w3.org/2000/svg"
 width="1024.000000pt" height="1024.000000pt" viewBox="0 0 1024.000000 1024.000000"
 preserveAspectRatio="xMidYMid meet">

<g transform="translate(0.000000,1024.000000) scale(0.100000,-0.100000)"
fill="#ffffff" stroke="none">
<path d="M2331 8740 c-97 -14 -196 -37 -299 -71 -109 -36 -117 -47 -109 -147
7 -86 39 -146 113 -205 130 -105 268 -160 404 -160 108 1 207 27 353 95 90 42
116 49 148 45 21 -3 39 -4 39 -4 0 1 -11 24 -25 51 -34 67 -34 151 -1 223 28
60 55 80 128 97 l53 12 -30 16 c-63 33 -631 68 -774 48z m231 -94 c84 -16 158
-43 158 -58 0 -7 -15 -8 -37 -5 -21 4 -72 11 -113 18 -49 7 -150 9 -287 6
-117 -3 -213 -4 -213 -2 0 8 104 37 162 44 102 14 251 12 330 -3z m-121 -156
c63 -10 134 -20 159 -22 25 -2 44 -7 43 -13 -3 -21 -90 -37 -203 -38 -113 0
-259 23 -335 53 l-30 12 30 14 c44 20 205 17 336 -6z"/>
<path d="M1763 8646 c-134 -63 -283 -197 -377 -339 -86 -132 -91 -153 -52
-241 28 -64 95 -135 158 -167 36 -19 60 -23 143 -23 94 -1 104 1 169 33 71 35
131 87 184 160 34 46 48 116 37 180 -6 34 -12 42 -41 51 -41 14 -110 90 -125
139 -11 37 -8 153 6 204 7 25 5 27 -21 27 -16 0 -52 -11 -81 -24z m-13 -139
c0 -2 -30 -28 -67 -57 -38 -30 -103 -88 -145 -129 -43 -41 -81 -72 -84 -68
-12 12 49 102 105 155 56 53 139 102 173 102 10 0 18 -1 18 -3z m0 -123 c0
-24 -244 -284 -267 -284 -20 0 -16 10 23 70 45 70 115 143 179 186 49 33 65
40 65 28z"/>
<path d="M3090 8618 c-62 -32 -95 -92 -94 -173 1 -70 14 -99 54 -120 17 -9 30
-20 30 -26 0 -6 -25 -39 -55 -72 -95 -106 -125 -197 -125 -376 1 -230 86 -545
200 -741 90 -154 243 -269 371 -278 67 -5 77 8 27 34 -41 21 -135 99 -177 146
-45 52 -91 157 -103 237 -9 61 -8 79 11 139 37 123 69 154 232 221 147 61 269
191 315 337 63 197 28 377 -98 503 -92 91 -204 133 -336 123 -71 -5 -72 -4
-112 32 -47 43 -77 46 -140 14z m352 -140 c117 -62 207 -167 249 -289 17 -53
20 -79 16 -151 -4 -77 -10 -99 -45 -173 -45 -93 -72 -116 -40 -32 16 39 21 76
21 147 1 169 -63 310 -205 451 -91 92 -91 98 4 47z m-262 -3 c44 -12 142 -65
184 -100 57 -47 102 -126 127 -225 20 -76 21 -94 11 -177 -6 -50 -18 -104 -27
-120 -16 -28 -16 -28 -12 32 8 124 -35 242 -139 381 -53 71 -110 128 -171 174
-35 26 -45 55 -15 46 9 -2 28 -8 42 -11z"/>
<path d="M1191 8055 c-63 -73 -111 -201 -147 -399 -22 -118 -26 -158 -21 -246
4 -58 11 -122 17 -142 14 -47 56 -80 140 -108 108 -37 216 -16 303 56 19 16
41 24 67 24 35 0 42 5 68 43 71 102 102 193 102 295 0 64 -9 90 -55 158 -13
20 -27 52 -31 71 -5 26 -10 33 -23 27 -37 -15 -101 -15 -153 0 -85 24 -165
119 -192 229 -9 38 -37 35 -75 -8z m39 -135 c0 -12 -8 -37 -19 -58 -10 -20
-30 -74 -45 -119 -15 -46 -30 -83 -33 -83 -10 0 5 112 21 165 27 87 76 148 76
95z m50 -101 c0 -5 -11 -49 -24 -97 -32 -115 -56 -235 -56 -281 0 -20 -5 -43
-11 -51 -16 -24 -4 215 15 283 21 75 56 157 67 157 5 0 9 -5 9 -11z m193 -135
c29 -75 20 -169 -26 -267 -36 -77 -76 -142 -83 -134 -2 2 7 35 20 74 31 91 46
189 46 298 0 100 13 109 43 29z"/>
<path d="M1470 7139 c-78 -56 -140 -73 -224 -59 -65 10 -143 40 -198 76 -15
10 -30 15 -34 11 -4 -4 -8 -71 -8 -150 1 -156 23 -295 70 -442 48 -146 146
-307 233 -381 l41 -36 16 39 c62 158 137 260 225 308 45 24 67 29 129 30 l74
2 9 34 c13 49 1 211 -23 304 -26 101 -61 154 -139 211 -34 24 -67 56 -73 69
-15 34 -34 31 -98 -16z m-356 -141 c12 -80 15 -201 5 -191 -26 26 -52 197 -32
216 14 14 22 6 27 -25z m121 -106 c14 -64 36 -161 49 -215 26 -113 15 -123
-27 -23 -65 155 -101 388 -56 361 4 -3 19 -58 34 -123z m204 102 c76 -63 109
-169 91 -286 -6 -40 -15 -77 -19 -81 -4 -4 -11 36 -14 90 -6 106 -31 195 -70
247 -48 64 -43 76 12 30z"/>
<path d="M1740 6467 c-133 -39 -232 -121 -299 -247 -18 -33 -43 -73 -56 -89
-30 -35 -31 -68 -5 -170 27 -108 61 -180 133 -284 73 -105 139 -159 302 -244
60 -32 113 -59 117 -61 13 -6 9 37 -13 121 -17 66 -20 101 -16 182 6 123 26
180 83 244 59 65 124 93 212 90 37 -1 66 2 65 7 -1 5 -4 26 -7 47 -19 115
-165 308 -287 380 -55 33 -161 44 -229 24z m-39 -133 c63 -32 126 -141 153
-266 12 -51 -9 -29 -48 53 -37 77 -123 182 -170 206 -25 14 -11 36 17 27 12
-4 34 -13 48 -20z m-146 -280 c22 -36 66 -106 98 -156 32 -50 55 -93 52 -96
-3 -3 -34 24 -70 61 -59 62 -145 206 -145 243 0 32 28 10 65 -52z"/>
<path d="M7490 6289 c-209 -22 -412 -115 -465 -213 -19 -35 -19 -37 -2 -66 18
-30 18 -32 -2 -90 -37 -107 -24 -162 58 -240 56 -54 58 -59 63 -115 4 -52 9
-62 39 -88 71 -61 223 -109 384 -123 226 -18 517 74 637 202 184 196 213 217
335 249 80 21 135 19 244 -10 51 -13 117 -25 145 -25 77 0 210 -37 301 -83 45
-23 85 -38 89 -34 11 11 -48 88 -100 129 -153 121 -331 189 -686 263 -69 15
-154 39 -190 55 -36 15 -123 53 -194 84 -244 106 -401 131 -656 105z m340 -79
c30 -6 62 -18 72 -27 22 -20 23 -56 3 -73 -8 -7 -15 -16 -15 -21 0 -4 33 -23
73 -43 76 -36 125 -76 94 -76 -8 0 -64 12 -124 27 -97 25 -126 28 -278 28
-181 0 -231 -9 -277 -47 -45 -38 -46 -69 -4 -116 40 -44 38 -55 -5 -40 -70 24
-93 118 -43 178 30 35 66 56 135 76 59 18 66 27 39 54 -19 19 -28 21 -73 15
-29 -4 -72 -14 -97 -21 -55 -17 -62 -11 -19 16 49 30 137 61 190 67 59 7 92
-20 87 -70 l-3 -32 118 -2 c106 -2 118 -1 115 14 -5 25 -62 60 -109 68 -43 7
-42 20 1 28 44 8 66 7 120 -3z"/>
<path d="M3476 6120 c-108 -34 -146 -221 -54 -268 12 -6 75 -32 138 -57 161
-65 246 -120 385 -256 l120 -116 70 -12 c101 -16 305 -19 305 -4 0 14 -141
144 -255 235 -44 36 -150 120 -235 188 -85 69 -186 151 -225 183 -118 99 -183
127 -249 107z"/>
<path d="M3283 6081 c-63 -35 -161 -112 -223 -176 -25 -25 -69 -60 -97 -76
-29 -17 -53 -32 -53 -35 0 -6 125 -64 140 -64 7 0 73 41 148 91 l136 90 2 43
c3 37 15 83 39 139 11 27 -31 21 -92 -12z"/>
<path d="M6764 6011 c-117 -48 -172 -81 -260 -152 -74 -61 -104 -106 -104
-158 0 -31 0 -31 54 -31 72 0 172 -32 218 -70 20 -17 51 -56 69 -88 18 -31 33
-59 35 -60 1 -2 44 1 96 7 99 12 198 37 198 49 0 4 -20 24 -44 45 -29 24 -57
62 -80 108 -31 61 -36 82 -36 141 0 67 23 136 50 153 19 12 11 63 -12 79 -35
25 -86 19 -184 -23z m26 -108 c-1 -8 -149 -114 -169 -121 -24 -8 -9 36 23 67
43 41 147 80 146 54z"/>
<path d="M4565 5966 c-17 -7 -47 -29 -68 -48 -32 -30 -37 -41 -37 -79 0 -57
33 -114 90 -156 148 -110 206 -170 310 -321 39 -56 53 -68 105 -89 74 -30 195
-43 195 -21 0 8 -20 46 -44 84 -24 38 -90 146 -146 239 -214 351 -259 406
-342 405 -18 -1 -47 -7 -63 -14z"/>
<path d="M2188 5937 c-106 -28 -149 -60 -192 -142 -30 -58 -31 -64 -31 -190 0
-71 4 -156 9 -188 8 -55 8 -59 -18 -86 l-27 -28 35 -61 c19 -33 49 -83 67
-109 42 -62 249 -273 268 -273 8 0 29 11 47 25 47 36 82 48 143 49 62 1 78 19
34 38 -201 84 -266 134 -354 270 -57 89 -102 183 -97 199 2 6 21 -15 42 -47
61 -91 234 -292 280 -323 32 -22 120 -71 197 -109 3 -1 11 31 17 73 6 41 24
99 38 128 89 177 278 352 457 422 37 15 67 31 67 36 0 16 -66 58 -155 99 -80
37 -309 125 -375 145 -14 4 -61 27 -106 51 -79 43 -83 44 -170 43 -58 0 -119
-8 -176 -22z m272 -77 c0 -5 -19 -14 -42 -20 -24 -7 -75 -27 -115 -46 -57 -27
-85 -49 -140 -110 -71 -80 -92 -84 -49 -9 54 91 139 152 254 179 70 17 92 19
92 6z m189 -115 c26 -61 89 -125 124 -124 12 0 54 6 92 13 93 17 108 9 46 -24
-112 -62 -189 -134 -256 -240 -56 -89 -38 30 21 138 19 34 34 68 34 75 0 16
-56 70 -90 88 -14 7 -52 13 -85 13 -71 -1 -130 -24 -194 -78 -24 -20 -46 -35
-48 -32 -16 16 86 142 144 177 41 26 112 47 159 48 28 1 32 -4 53 -54z"/>
<path d="M5270 5775 c-33 -35 -24 -94 33 -203 50 -97 117 -258 142 -345 10
-34 23 -58 33 -61 25 -8 200 -46 210 -46 10 0 -130 434 -164 508 -27 58 -93
136 -135 158 -44 22 -92 18 -119 -11z"/>
<path d="M5472 5742 c40 -41 62 -76 78 -121 16 -41 32 -68 49 -78 14 -9 53
-33 85 -55 53 -34 61 -37 80 -25 27 18 49 82 40 120 -9 43 -184 154 -313 198
-30 11 -59 19 -64 19 -6 0 15 -26 45 -58z"/>
<path d="M4430 5729 c0 -27 -31 -163 -46 -202 -6 -16 123 -167 142 -167 7 0
15 44 22 113 6 61 14 124 17 138 6 22 2 30 -24 45 -16 10 -45 37 -62 61 -18
24 -36 43 -41 43 -4 0 -8 -14 -8 -31z"/>
<path d="M8430 5720 c-30 -21 -93 -77 -139 -123 l-84 -85 59 -6 c322 -34 588
-92 749 -166 33 -15 105 -54 159 -88 117 -72 164 -91 177 -71 21 34 -31 113
-105 163 -31 20 -63 51 -72 67 -27 53 -50 69 -101 69 -43 0 -50 4 -104 60 -31
33 -64 60 -73 60 -55 0 -116 24 -154 61 -33 31 -49 39 -79 39 -56 0 -112 18
-126 41 -17 28 -45 23 -107 -21z"/>
<path d="M3246 5608 c-142 -20 -422 -241 -519 -408 -82 -142 -104 -222 -71
-268 9 -13 54 -48 100 -77 46 -30 112 -81 147 -112 34 -32 82 -75 106 -95 25
-21 42 -40 39 -43 -2 -3 -36 21 -74 53 -139 115 -248 191 -317 222 -59 27
-118 26 -144 -2 -32 -37 -54 -106 -55 -179 -1 -60 2 -73 28 -110 39 -56 122
-122 244 -192 l100 -59 53 35 c81 53 93 58 165 63 52 4 88 0 160 -19 134 -36
126 -14 -33 93 -128 86 -125 80 -58 108 79 33 83 37 83 96 0 141 98 382 208
511 64 76 142 146 210 189 24 15 42 32 39 39 -7 24 -103 88 -177 118 -85 36
-162 48 -234 37z m-64 -168 c6 -55 22 -79 81 -117 21 -13 40 -30 43 -38 8 -19
-32 -97 -72 -143 -39 -45 -50 -39 -24 13 28 55 26 98 -7 135 -64 70 -154 37
-235 -86 -24 -38 -55 -85 -67 -104 l-23 -35 6 33 c3 19 25 73 48 120 34 70 60
105 133 180 49 50 95 92 101 92 6 0 14 -23 16 -50z m-438 -679 c51 -39 95 -81
82 -81 -11 0 -181 94 -188 104 -12 17 3 28 29 21 14 -3 48 -23 77 -44z"/>
<path d="M6328 5595 c-15 -9 -35 -29 -43 -45 -34 -67 -14 -152 94 -394 44 -99
86 -201 92 -228 7 -26 16 -48 21 -48 4 0 28 16 54 35 40 31 53 35 102 35 37 0
78 -9 115 -24 l57 -24 0 107 c0 116 -23 247 -61 346 -48 127 -208 246 -343
252 -41 2 -70 -2 -88 -12z m81 -107 c5 -13 14 -54 20 -93 7 -38 23 -100 36
-137 13 -37 19 -68 14 -68 -29 0 -109 183 -109 249 0 36 11 71 21 71 5 0 13
-10 18 -22z"/>
<path d="M5826 5516 c-4 -19 -15 -45 -25 -58 -19 -23 -19 -23 3 -48 39 -43
102 -103 166 -159 l61 -54 -7 -54 -6 -53 49 0 c41 0 55 5 80 29 28 27 126 71
158 71 8 0 16 4 19 8 4 7 -48 148 -60 161 -11 12 -96 -26 -125 -55 -18 -19
-37 -34 -42 -34 -10 0 -61 55 -133 146 -57 71 -115 134 -125 134 -4 0 -10 -15
-13 -34z"/>
<path d="M3782 5460 c-97 -22 -299 -242 -413 -450 -65 -119 -139 -308 -139
-353 0 -124 318 -293 410 -219 19 16 24 33 31 108 8 97 30 210 56 289 23 71
109 241 150 295 48 63 149 165 206 207 26 19 47 38 47 42 0 8 -232 78 -280 84
-19 2 -50 1 -68 -3z m-87 -187 c-21 -48 -17 -73 14 -108 35 -40 40 -79 16
-125 -21 -41 -33 -37 -31 10 1 43 -13 60 -48 60 -31 0 -97 -79 -149 -179 -64
-121 -81 -133 -52 -34 34 114 128 275 213 366 29 31 48 36 37 10z"/>
<path d="M4130 5334 c-70 -66 -167 -183 -225 -273 -58 -90 -147 -275 -169
-354 -62 -217 -68 -271 -33 -332 63 -111 313 -197 385 -131 27 23 38 20 61
-17 23 -37 82 -71 156 -87 86 -19 168 9 222 76 l30 38 49 -42 c61 -51 179
-107 258 -121 143 -26 282 -9 481 59 128 44 172 47 262 19 38 -12 56 -10 195
20 202 42 239 55 301 104 62 49 81 70 107 119 38 70 22 146 -44 217 l-31 33
30 -16 c17 -9 45 -28 64 -41 44 -32 58 -31 114 6 34 22 54 46 77 91 71 143 15
267 -146 328 -58 21 -84 25 -299 40 -210 15 -366 38 -460 67 -44 13 -116 36
-160 49 -99 31 -212 41 -285 25 -63 -13 -143 -63 -206 -128 -69 -71 -59 -87
68 -107 47 -8 100 -22 119 -33 l34 -18 -95 -3 c-65 -2 -113 2 -152 13 -92 26
-99 19 -118 -130 -7 -51 -23 -107 -46 -160 -37 -83 -89 -227 -99 -280 -6 -27
-8 -28 -17 -11 -7 12 -9 55 -5 115 6 102 31 195 85 318 18 39 39 104 47 145
28 134 88 223 195 289 28 17 50 34 50 39 0 8 -39 24 -119 49 -42 13 -211 14
-244 2 -28 -11 -106 -114 -164 -218 -102 -179 -205 -441 -244 -618 -11 -49
-22 -91 -25 -94 -11 -11 -2 118 15 221 47 270 151 486 312 645 45 45 69 76 64
82 -26 25 -117 44 -227 49 l-116 4 -52 -48z m-6 -197 c-5 -43 -2 -64 15 -102
26 -60 26 -89 0 -131 -21 -35 -47 -48 -33 -16 4 9 9 35 12 58 4 46 -15 74 -50
74 -50 0 -139 -144 -183 -295 -14 -49 -28 -91 -31 -94 -3 -3 -3 21 1 54 13
111 65 237 147 359 38 55 115 146 124 146 2 0 1 -24 -2 -53z m1286 -22 c126
-26 230 -65 174 -65 -22 0 -298 46 -340 56 -13 3 -24 10 -24 15 0 14 108 10
190 -6z m-810 -5 c0 -37 -43 -268 -61 -325 -25 -82 -77 -195 -89 -195 -4 0 8
44 27 98 51 141 46 232 -12 232 -50 0 -120 -141 -159 -322 -10 -43 -21 -80
-27 -83 -29 -18 16 217 59 308 40 84 140 217 198 261 48 37 64 43 64 26z
m1605 -156 c68 -23 91 -40 105 -75 25 -60 -11 -89 -109 -89 -41 0 -108 17
-115 28 -3 5 28 8 67 8 57 -1 72 2 72 14 0 22 -69 56 -161 79 -45 11 -94 26
-110 32 -27 10 -28 12 -9 20 30 14 203 2 260 -17z m-846 -98 c31 -8 83 -17
117 -21 50 -5 64 -4 78 10 21 21 37 18 245 -41 145 -42 270 -89 260 -98 -2 -3
-49 9 -104 26 -93 28 -115 31 -305 37 -222 8 -277 20 -345 76 -35 28 -24 30
54 11z m50 -181 c77 -35 139 -85 192 -155 31 -42 39 -60 39 -95 0 -36 -5 -48
-31 -69 -17 -14 -40 -26 -51 -26 -18 0 -17 4 12 36 25 29 30 42 25 63 -19 75
-205 231 -276 231 -12 0 -39 -5 -60 -12 -30 -8 -48 -8 -79 1 -22 6 -40 16 -40
21 0 17 94 40 150 37 34 -2 80 -14 119 -32z m-586 -12 c-13 -91 -46 -215 -63
-235 l-19 -23 -1 60 c0 65 16 129 49 194 27 51 41 53 34 4z m975 11 c154 -31
240 -97 228 -173 -3 -18 -13 -42 -22 -52 -28 -31 -98 -52 -154 -47 -77 8 -79
23 -4 23 76 0 100 18 90 69 -14 70 -105 138 -224 166 -121 28 -45 41 86 14z"/>
<path d="M6849 5086 c-2 -3 -3 -51 -1 -109 l3 -105 57 -38 c31 -20 92 -66 135
-102 65 -54 82 -63 103 -58 14 4 32 2 39 -4 10 -9 47 -6 142 10 70 12 163 24
206 27 42 3 77 8 77 11 0 3 -12 18 -26 33 -14 15 -24 32 -20 37 3 5 26 15 51
21 25 6 45 16 45 21 0 5 -14 17 -32 26 -25 13 -47 15 -99 10 -71 -6 -222 -46
-271 -72 l-31 -16 -86 84 c-86 85 -122 115 -216 180 -65 44 -71 48 -76 44z"/>
<path d="M2410 4892 c-19 -10 -75 -42 -125 -71 -49 -30 -121 -72 -160 -94
-145 -83 -370 -240 -392 -274 -15 -23 -15 -27 2 -59 31 -59 77 -79 175 -79 76
0 92 4 150 32 74 37 117 75 195 173 30 38 77 91 105 118 37 36 50 57 50 78 0
16 12 61 25 99 14 39 26 74 27 79 5 17 -18 16 -52 -2z"/>
<path d="M6584 4889 c-46 -13 -77 -51 -77 -96 0 -42 37 -122 88 -193 37 -51
86 -147 104 -202 7 -21 17 -38 22 -38 29 0 122 56 148 89 41 52 51 82 51 155
0 147 -60 237 -186 275 -71 22 -101 24 -150 10z m82 -84 c7 -29 -40 -119 -59
-112 -17 5 -21 74 -6 108 15 38 56 41 65 4z"/>
<path d="M6475 4670 c-11 -33 -115 -118 -167 -136 -48 -16 -48 -16 -48 -60 0
-93 -92 -207 -213 -264 -31 -15 -134 -47 -229 -70 -165 -42 -173 -43 -234 -31
-73 15 -83 13 -260 -45 -180 -58 -236 -68 -352 -61 -141 8 -252 43 -364 114
-26 17 -28 17 -50 -4 -13 -11 -39 -29 -58 -38 -81 -41 -287 10 -351 87 l-26
32 -54 -23 c-42 -18 -64 -22 -103 -17 -104 12 -226 97 -273 190 -14 28 -26 52
-27 53 -2 2 -22 -5 -45 -14 -37 -15 -50 -15 -104 -4 -120 25 -243 107 -288
193 -10 20 -23 39 -28 42 -11 7 -81 -24 -81 -35 0 -5 28 -27 63 -50 83 -57
161 -121 193 -159 15 -17 53 -45 86 -61 33 -17 109 -60 170 -96 137 -81 213
-119 258 -128 64 -13 99 -36 131 -86 17 -27 38 -49 46 -49 8 0 40 7 70 16 35
10 80 15 122 12 57 -3 77 -9 132 -44 53 -33 69 -50 97 -102 25 -47 38 -62 55
-62 50 0 303 33 317 41 8 5 44 24 79 41 56 27 74 31 141 31 46 -1 92 -8 115
-17 84 -36 145 -103 145 -161 0 -58 11 -59 92 -15 94 50 198 86 307 105 164
29 150 16 -33 -30 -206 -52 -350 -129 -449 -239 -55 -61 -110 -206 -79 -206 4
0 26 13 48 29 61 45 127 63 227 62 77 0 97 -4 151 -29 42 -20 75 -44 100 -76
49 -59 65 -59 209 1 133 57 201 113 212 176 15 81 -67 280 -135 325 -28 19
-43 22 -77 17 l-42 -6 10 30 c15 42 80 98 124 107 61 11 131 -1 173 -30 21
-14 56 -53 77 -86 21 -33 43 -60 47 -60 17 0 73 33 101 59 25 23 36 26 100 25
40 0 82 -4 95 -8 39 -14 26 23 -23 70 -42 39 -45 45 -45 94 0 42 -9 68 -47
142 -26 51 -70 116 -101 149 -63 68 -56 76 15 20 35 -28 64 -65 97 -126 27
-47 53 -88 58 -91 15 -10 208 7 208 18 0 6 -16 26 -36 46 -34 34 -36 39 -31
87 5 56 -12 134 -44 198 -19 38 -156 227 -164 227 -2 0 -6 -9 -10 -20z m94
-198 c19 -37 41 -126 41 -163 0 -18 -9 -12 -56 30 -30 28 -68 58 -84 68 -37
22 -43 38 -29 80 21 66 91 58 128 -15z m-210 -213 c41 -41 116 -167 106 -177
-3 -3 -29 6 -57 20 -29 14 -74 33 -100 42 -57 21 -98 52 -98 74 0 25 61 82 87
82 14 0 39 -16 62 -41z m-172 -159 c55 -19 108 -48 101 -55 -2 -2 -34 7 -71
20 -117 43 -216 29 -301 -41 -42 -35 -76 -92 -76 -129 -1 -26 -2 -28 -11 -12
-15 26 -2 86 27 124 28 37 94 85 139 101 48 17 131 14 192 -8z m-542 -463
c-60 -34 -128 -75 -150 -90 -72 -49 -102 -27 -42 30 52 51 208 121 272 122 24
1 9 -11 -80 -62z"/>
<path d="M2993 4404 c-86 -37 -289 -173 -502 -335 -173 -131 -183 -148 -123
-212 34 -36 137 -87 176 -87 83 0 236 121 349 275 28 39 66 87 84 108 19 21
33 48 33 62 0 14 7 61 16 103 9 42 16 81 17 86 3 15 -17 15 -50 0z"/>
<path d="M3076 4341 c-18 -80 -21 -173 -5 -202 12 -23 193 -159 211 -159 6 0
22 10 35 22 43 40 126 38 438 -13 216 -35 215 -35 215 -12 0 30 -31 56 -106
88 -77 33 -130 62 -289 160 -169 104 -365 185 -450 185 -33 0 -33 0 -49 -69z
m249 -66 c77 -38 144 -85 122 -85 -3 0 -46 16 -96 34 -49 19 -108 40 -130 46
-74 20 -93 68 -23 56 19 -3 77 -26 127 -51z"/>
<path d="M1686 4362 c-54 -87 -120 -244 -211 -502 -122 -345 -129 -360 -188
-379 -17 -6 -72 -10 -122 -8 -86 2 -93 0 -153 -32 -69 -38 -122 -91 -122 -122
0 -18 5 -20 33 -16 17 3 42 8 55 12 22 7 22 6 16 -34 l-7 -41 34 6 c19 4 79
25 134 47 55 22 132 50 170 62 53 17 73 29 83 49 11 21 18 24 42 20 36 -8 42
4 100 181 51 158 79 213 134 274 41 45 43 48 44 116 0 51 9 94 32 160 45 130
46 132 19 140 -12 4 -37 23 -54 42 -19 21 -35 31 -39 25z"/>
<path d="M3396 4001 c-3 -5 9 -34 28 -64 18 -31 39 -78 45 -104 7 -26 17 -58
21 -70 19 -46 152 -90 370 -123 180 -27 184 -26 233 15 48 41 152 77 272 94
131 19 125 16 114 54 -20 72 -137 137 -248 137 -68 0 -77 -6 -54 -33 17 -20
17 -20 -2 -13 -35 14 -197 44 -270 51 -38 3 -92 10 -120 15 -240 44 -378 59
-389 41z m333 -70 c81 -21 127 -50 56 -35 -22 5 -83 9 -135 10 -121 1 -119 1
-91 24 30 25 77 25 170 1z"/>
<path d="M3280 3924 c-73 -84 -270 -557 -270 -651 0 -56 81 -87 167 -64 86 23
208 195 232 325 14 75 14 289 1 337 -12 44 -52 89 -78 89 -11 0 -34 -16 -52
-36z"/>
<path d="M5982 3919 c-23 -12 -47 -30 -53 -40 -10 -20 -6 -22 75 -33 52 -7
101 -54 136 -132 39 -86 53 -160 41 -215 -5 -24 -8 -46 -5 -48 3 -3 26 6 52
19 61 32 82 74 82 160 0 148 -131 310 -251 310 -19 0 -53 -10 -77 -21z"/>
<path d="M2300 3777 c-10 -48 -52 -296 -99 -587 -11 -69 -31 -159 -44 -200
-22 -65 -23 -77 -11 -91 23 -26 0 -35 -118 -47 -132 -13 -227 -52 -287 -118
-58 -62 -101 -154 -72 -154 5 0 32 16 60 35 67 46 74 45 65 -10 -6 -40 -4 -45
14 -45 28 0 112 36 217 94 50 27 114 59 143 72 29 13 54 30 56 37 3 6 7 25 11
41 l6 29 24 -23 c40 -38 50 -23 69 111 34 227 50 280 119 376 30 42 30 44 16
85 -21 66 -17 210 10 282 12 33 18 63 14 66 -5 4 -34 17 -65 29 -32 13 -63 30
-69 38 -7 8 -20 18 -30 23 -15 9 -19 3 -29 -43z"/>
<path d="M4985 3818 c-16 -6 -31 -12 -33 -13 -1 -1 13 -26 32 -54 52 -77 59
-156 19 -218 -9 -13 -12 -27 -9 -31 4 -4 44 -7 89 -7 71 0 88 4 129 28 26 15
60 44 77 64 59 71 34 171 -54 217 -46 24 -199 33 -250 14z"/>
<path d="M4560 3750 c-124 -16 -253 -36 -288 -44 -59 -15 -122 -48 -122 -65 0
-4 20 -22 44 -39 25 -18 66 -57 92 -88 74 -86 83 -89 269 -89 272 0 400 45
436 152 20 61 -11 150 -62 182 -39 23 -136 21 -369 -9z"/>
<path d="M4061 3576 c-14 -15 -29 -50 -37 -88 -20 -97 -36 -337 -32 -500 4
-172 9 -184 82 -181 80 3 158 59 191 140 29 69 40 194 26 294 -27 188 -70 296
-135 334 -53 31 -67 31 -95 1z"/>
<path d="M5278 3320 c-80 -24 -157 -106 -183 -193 -22 -74 -19 -217 6 -307 78
-283 304 -550 465 -550 75 0 80 31 24 180 -52 140 -41 243 36 329 41 46 67 60
166 96 49 17 88 55 88 85 0 68 -243 291 -379 347 -59 24 -167 30 -223 13z
m132 -72 c45 -23 110 -97 110 -125 0 -8 -24 10 -53 41 -46 49 -58 56 -90 56
-31 0 -39 -4 -47 -26 -14 -35 -12 -82 5 -129 8 -21 12 -41 10 -44 -9 -9 -78
55 -96 89 -26 48 -25 108 3 137 29 31 97 31 158 1z m-2 -540 c18 -47 2 -95
-34 -104 -53 -13 -69 38 -33 107 25 50 48 48 67 -3z"/>
<path d="M3020 3176 c0 -17 45 -194 66 -261 18 -57 24 -91 19 -119 -5 -34 -2
-42 20 -60 29 -24 61 -122 95 -292 12 -60 28 -112 35 -117 11 -6 10 -17 -8
-60 -16 -38 -44 -74 -104 -132 -167 -162 -256 -383 -103 -255 26 22 51 40 54
40 3 0 6 -13 6 -29 0 -37 16 -81 30 -81 5 0 41 46 79 103 38 56 89 126 114
154 34 40 48 66 57 108 11 52 13 55 41 55 18 0 32 6 36 16 6 17 -16 115 -78
344 -39 147 -47 204 -29 215 18 11 10 36 -25 80 -41 50 -81 142 -99 229 -11
57 -14 61 -37 56 -37 -7 -90 -6 -131 3 -21 4 -38 6 -38 3z"/>
<path d="M6330 3108 c-101 -11 -187 -36 -285 -84 -111 -54 -152 -87 -212 -172
-25 -37 -81 -101 -124 -142 -113 -110 -124 -172 -50 -288 51 -79 53 -87 35
-149 -23 -80 -13 -128 47 -217 107 -160 317 -296 529 -342 100 -22 228 -28
304 -15 108 19 158 50 286 180 127 127 185 166 279 182 70 13 87 29 106 99 7
28 19 58 25 65 21 25 71 27 140 6 84 -27 89 -26 136 8 80 58 150 65 270 27
l76 -25 47 49 c59 61 87 68 171 47 36 -10 72 -17 80 -17 9 0 42 20 74 44 56
42 136 73 279 107 60 14 67 26 33 55 -57 50 -105 56 -491 65 -356 8 -404 12
-539 44 -84 20 -120 38 -261 130 -299 195 -481 285 -656 325 -77 17 -223 26
-299 18z m207 -163 c105 -17 204 -51 318 -108 87 -43 199 -116 192 -124 -3 -2
-41 11 -84 30 -330 145 -634 166 -827 57 -31 -18 -56 -27 -56 -21 0 23 94 111
145 136 44 22 122 39 200 44 11 0 61 -6 112 -14z m-486 -483 c-111 -111 -77
-229 85 -289 56 -21 92 -27 191 -31 67 -2 137 -2 156 2 19 4 73 36 128 78 52
39 126 87 165 105 116 55 334 90 399 64 16 -7 9 -10 -30 -15 -265 -35 -381
-73 -495 -160 -164 -126 -310 -172 -458 -146 -65 12 -73 11 -125 -10 -41 -17
-64 -21 -93 -16 -46 9 -29 26 27 26 20 0 47 8 59 18 l22 18 -38 29 c-117 88
-144 218 -63 309 27 31 108 81 117 72 2 -2 -19 -26 -47 -54z"/>
<path d="M4160 2795 c-14 -8 -49 -14 -77 -15 -29 0 -53 -4 -53 -10 0 -5 20
-66 45 -137 25 -70 45 -144 45 -165 0 -31 5 -40 23 -47 18 -7 36 -39 77 -138
70 -169 90 -230 90 -267 0 -18 -21 -68 -51 -121 -115 -205 -169 -385 -115
-385 7 0 32 27 55 60 23 33 45 60 49 60 4 -1 18 -24 32 -53 35 -73 50 -68 70
23 37 163 72 296 85 322 10 19 12 45 8 79 l-6 51 31 -7 c29 -6 32 -4 32 18 0
14 -15 61 -33 104 -19 43 -49 121 -66 173 -28 80 -32 103 -27 150 6 52 4 58
-20 81 -21 19 -102 144 -143 218 -11 21 -23 22 -51 6z"/>
<path d="M7110 1989 c-19 -12 -66 -49 -105 -84 -99 -88 -203 -165 -252 -187
-24 -10 -43 -23 -43 -27 0 -15 180 -79 294 -106 177 -41 388 -74 548 -86 311
-23 634 29 831 133 93 49 204 168 157 168 -5 0 -60 -14 -122 -31 -139 -38
-184 -40 -232 -9 l-37 22 -44 -31 c-59 -43 -95 -49 -137 -23 -29 18 -44 20
-105 15 -66 -5 -73 -4 -95 18 -14 14 -30 34 -36 44 -10 18 -13 19 -44 6 -131
-53 -162 -49 -232 31 l-44 51 -59 -5 c-32 -3 -67 -2 -79 2 -18 7 -40 47 -58
103 -8 24 -62 22 -106 -4z"/>
</g>
</svg>
